<svg xmlns="http://www.w3.org/2000/svg" xmlns:xlink="http://www.w3.org/1999/xlink" width="500" zoomAndPan="magnify" viewBox="0 0 375 374.999991" height="500" preserveAspectRatio="xMidYMid meet" version="1.0"><defs><clipPath id="43bc13de0b"><path d="M 14.320312 14.320312 L 360.703125 14.320312 L 360.703125 360.6875 L 14.320312 360.6875 Z M 14.320312 14.320312 " clip-rule="nonzero"/></clipPath></defs><rect x="-37.5" width="450" fill="#ffffff" y="-37.499999" height="449.999989" fill-opacity="1"/><rect x="-37.5" width="450" fill="#ffffff" y="-37.499999" height="449.999989" fill-opacity="1"/><g clip-path="url(#43bc13de0b)"><path fill="#172124" d="M 14.742188 199.691406 C 14.460938 195.664062 14.320312 191.597656 14.320312 187.5 C 14.320312 179.265625 14.902344 171.171875 16.015625 163.246094 C 54.890625 164.101562 140.929688 159.648438 140.929688 159.648438 L 17.0625 156.625 C 19.75 141.714844 24.34375 127.472656 30.582031 114.152344 L 117.328125 114.703125 L 33.679688 107.875 C 40.863281 94.035156 49.847656 81.277344 60.347656 69.933594 C 91.679688 70.996094 117.605469 70.507812 152.945312 68.449219 C 117.054688 66.269531 93.316406 65.78125 63.058594 67.066406 C 66.929688 63.070312 70.996094 59.25 75.238281 55.632812 C 95.890625 55.730469 116.054688 55.054688 140.851562 53.613281 C 117.132812 52.175781 98.71875 51.480469 80.230469 51.539062 C 109.722656 28.230469 146.992188 14.3125 187.507812 14.3125 C 235.332031 14.3125 278.628906 33.699219 309.96875 65.039062 C 293.25 64.671875 256.433594 67.695312 256.433594 67.695312 C 256.433594 67.695312 295.195312 69.632812 313.636719 68.832031 C 339.054688 95.84375 355.894531 131.023438 359.808594 170.011719 L 288.226562 175.6875 C 315.011719 176.511719 360.273438 175.507812 360.273438 175.507812 C 360.273438 175.507812 360.699219 183.476562 360.699219 187.5 C 360.699219 188.34375 360.679688 189.183594 360.664062 190.015625 C 349.898438 190.652344 338.566406 191.546875 325.878906 192.707031 C 338.265625 193.089844 349.640625 193.296875 360.585938 193.3125 C 357.519531 286.269531 281.210938 360.6875 187.507812 360.6875 C 179.40625 360.6875 171.449219 360.128906 163.640625 359.042969 C 164.339844 357.519531 164.671875 356.066406 164.550781 354.683594 C 164.210938 350.8125 166.808594 349.933594 168.714844 347.523438 C 170.917969 344.726562 172.792969 340.59375 177.625 338.832031 C 185.753906 335.847656 193.25 327.410156 210.71875 313.253906 C 218.15625 307.230469 221.175781 304.375 222.476562 302.4375 C 225.871094 297.359375 222.996094 297.300781 229.53125 294.140625 C 230.449219 293.699219 235.585938 291.519531 240.085938 289.234375 C 245.726562 286.378906 246.804688 281.625 250.246094 278.035156 C 253.441406 274.703125 257.5625 272.914062 259.945312 270.210938 C 263.609375 266.066406 264.664062 264.667969 265.324219 263.980469 C 266.871094 262.359375 268.050781 255.628906 262.242188 261.113281 C 258.046875 265.0625 251.738281 263.179688 243.605469 264.710938 C 240.816406 262.5 237.367188 263.394531 237.367188 263.394531 C 237.367188 263.394531 235.609375 258.832031 234.558594 253.574219 C 233.511719 248.3125 234.738281 230.953125 247.183594 212.890625 C 259.636719 194.832031 258.414062 184.398438 258.414062 184.398438 C 259.921875 187.359375 259.988281 191.84375 259.988281 191.84375 C 264.984375 182.335938 261.652344 172.207031 261.652344 172.207031 C 263.609375 174.207031 265.117188 180.015625 265.117188 180.015625 C 266.058594 172.828125 264.703125 166.074219 263.773438 162.574219 C 265.714844 165.0625 266.4375 168.835938 266.4375 168.835938 C 267.210938 159.492188 261.875 151.695312 261.875 151.695312 C 266.339844 148.417969 264.796875 145.605469 265.914062 141.539062 C 266.84375 138.144531 269.117188 131.578125 267.175781 129.570312 C 265.515625 128.445312 263.375 126.863281 263.375 126.863281 L 264.9375 130.335938 C 262 134.726562 257.75 135.90625 257.75 135.90625 C 257.429688 131.140625 258.855469 126.941406 260.78125 122.714844 L 264.132812 124.953125 C 263.039062 122.710938 262.421875 120.632812 260.554688 119 C 259.160156 117.773438 257.113281 117.839844 256.078125 119.136719 C 253.613281 122.21875 249.824219 127.765625 246.878906 129.6875 C 244.382812 131.3125 241.671875 131.292969 239.015625 132.941406 C 235.820312 134.921875 234.792969 137.839844 231.890625 142.773438 C 228.519531 148.515625 223.230469 152.609375 216.011719 151.957031 C 216.011719 151.957031 219.328125 158.054688 227.148438 157.566406 C 227.148438 157.566406 221.847656 165.679688 207.820312 169.269531 C 207.820312 169.269531 210.558594 169.949219 213.390625 170.0625 C 213.390625 170.0625 206.621094 172.335938 195.105469 173.878906 C 195.105469 173.878906 199.09375 175.894531 203.523438 175.714844 C 188.410156 181.734375 173.40625 178.46875 155.085938 187.335938 C 136.855469 196.15625 123.652344 207.96875 103.476562 214.203125 C 103.476562 214.203125 115.753906 217.25 123.5625 211.835938 C 115.140625 219.035156 99.609375 222.832031 83.753906 222.359375 C 88.507812 226.789062 95.226562 228.898438 99.996094 229.449219 C 86.101562 230.953125 69.835938 229.792969 56.226562 221.308594 C 54.558594 230.339844 67.179688 247.875 87.960938 244.191406 C 87.960938 244.191406 82.261719 247.519531 72.882812 247.792969 C 72.882812 247.792969 86.824219 255.570312 104.402344 249.476562 C 104.402344 249.476562 101.863281 251.992188 99.273438 253.488281 C 99.273438 253.488281 112.203125 252.609375 120.796875 243.355469 C 120.796875 243.355469 120.128906 246.023438 119.222656 248.007812 C 119.222656 248.007812 130.761719 239.398438 131.394531 224.644531 C 131.792969 234.871094 127.566406 245.753906 117.445312 253.71875 C 115.117188 255.554688 114.089844 256.003906 113.132812 258.875 C 112.648438 260.355469 111.832031 262.222656 110.523438 263.777344 C 108.601562 266.066406 107.753906 266.179688 109.398438 268.929688 C 110.925781 271.5 112.210938 274.34375 112.535156 277.03125 C 107.246094 276.097656 101.332031 276.09375 94.367188 275.8125 C 91.328125 275.6875 88.082031 274.804688 84.609375 274.953125 C 77.648438 275.253906 74.773438 281.070312 71.121094 283.042969 C 63.449219 287.191406 58.945312 289.652344 52.132812 295.515625 C 31.8125 270.085938 18.511719 238.820312 15.152344 204.621094 Z M 119.929688 278.390625 C 111.519531 270.34375 119.632812 264.1875 126.234375 261.679688 C 129.390625 260.480469 132.40625 259.546875 137.335938 252.015625 C 137.335938 252.015625 132.46875 261.484375 133.0625 266.6875 C 133.40625 269.78125 135.820312 271.371094 135.359375 274.929688 C 134.597656 275.367188 134.484375 275.433594 133.570312 275.949219 C 131.132812 277.3125 129.148438 277.121094 126.894531 277.492188 C 124.785156 277.84375 122.402344 278.835938 119.929688 278.390625 Z M 140.992188 271.664062 C 135.707031 262.839844 145.53125 255.605469 151.851562 252.800781 C 167.058594 246.070312 169.226562 232.121094 169.226562 232.121094 C 169.226562 232.121094 195.546875 232.546875 214.449219 225.703125 C 214.449219 225.703125 215.453125 236.765625 209.289062 245.359375 C 209.289062 245.359375 214.566406 244.78125 217.707031 241.265625 C 216.988281 244.878906 213.542969 248.382812 211.21875 251.316406 C 214.449219 251.480469 217.652344 250.480469 219.046875 249.449219 C 217.808594 255.160156 220.613281 259.554688 219.808594 268.066406 C 218.953125 268.25 218.75 268.335938 217.875 268.5625 C 211.140625 270.277344 207.535156 271.375 201.714844 272.726562 C 195.945312 274.066406 193 275.796875 189.25 275.445312 C 176.148438 274.207031 176.8125 269.691406 166.660156 270.335938 C 162.910156 270.570312 158.136719 272.0625 156.242188 272.019531 C 148.941406 271.855469 144.511719 269.765625 140.992188 271.664062 Z M 226.976562 266.734375 C 226.960938 264.457031 226.992188 255.929688 227.742188 252.371094 C 228.621094 258.382812 231.441406 260.648438 232.429688 266.105469 C 230.660156 266.277344 228.847656 266.476562 226.976562 266.734375 Z M 245.273438 136.289062 C 244.472656 137.757812 243.535156 138.792969 242.386719 139.707031 C 240.839844 140.9375 239.367188 140.214844 238.355469 139.007812 C 240.90625 138.515625 242.96875 137.546875 245.273438 136.289062 " fill-opacity="1" fill-rule="evenodd"/></g></svg>